<?xml version="1.0" standalone="no"?>
<!DOCTYPE svg PUBLIC "-//W3C//DTD SVG 20010904//EN"
 "http://www.w3.org/TR/2001/REC-SVG-20010904/DTD/svg10.dtd">
<svg version="1.0" xmlns="http://www.w3.org/2000/svg"
 width="512.000000pt" height="512.000000pt" viewBox="0 0 512.000000 512.000000"
 preserveAspectRatio="xMidYMid meet">
<metadata>
Created by potrace 1.14, written by Peter Selinger 2001-2017
</metadata>
<g transform="translate(0.000000,512.000000) scale(0.100000,-0.100000)"
fill="#000000" stroke="none">
<path d="M2330 4715 c-124 -91 -234 -171 -245 -179 -19 -14 -248 -180 -505
-366 -65 -47 -200 -145 -301 -217 -238 -171 -896 -648 -976 -708 l-63 -46 0
-280 0 -281 42 34 43 33 -20 -30 c-45 -69 -59 -111 -61 -180 -5 -149 80 -275
215 -317 41 -13 55 -28 25 -28 -9 0 -39 -12 -68 -26 -173 -87 -227 -308 -115
-471 34 -50 99 -97 158 -115 48 -15 52 -23 12 -31 -45 -9 -127 -64 -161 -107
-17 -21 -40 -65 -51 -97 -46 -131 4 -286 117 -364 43 -29 108 -55 127 -51 5 2
6 -2 2 -8 -3 -5 -13 -10 -21 -10 -29 0 -107 -44 -148 -84 -67 -67 -91 -125
-90 -226 0 -69 5 -94 24 -135 31 -63 91 -123 155 -155 l50 -25 2085 0 2085 0
50 25 c64 32 124 92 155 155 35 71 35 198 0 270 -42 87 -154 175 -220 175 -30
0 -16 16 20 23 17 4 54 22 84 41 169 108 194 349 51 491 -42 42 -120 85 -155
85 -30 0 -16 16 20 23 17 4 54 22 84 41 169 108 194 349 51 491 -42 42 -120
85 -155 85 -30 0 -16 16 20 23 48 10 135 72 168 119 82 119 81 250 -3 383
l-19 30 25 -20 c65 -55 59 -77 59 234 l0 280 -79 58 c-44 32 -152 110 -240
173 l-160 115 -1 508 0 507 40 0 40 0 0 160 0 160 -520 0 -520 0 0 -160 0
-160 40 0 40 0 0 -185 c0 -102 -2 -185 -4 -185 -2 0 -140 99 -307 220 -167
121 -346 251 -398 288 -51 37 -128 93 -171 125 -43 31 -80 57 -82 56 -1 0
-104 -74 -228 -164z m-1770 -1880 c0 -30 -3 -35 -24 -35 -13 0 -43 -7 -66 -15
-24 -8 -45 -13 -48 -10 -3 3 -1 5 5 5 5 0 36 20 69 45 32 24 60 45 62 45 1 0
2 -16 2 -35z m4115 -47 c6 -6 0 -7 -16 -3 -36 9 -61 13 -81 14 -14 1 -18 10
-18 37 l0 36 53 -38 c28 -21 57 -42 62 -46z"/>
</g>
</svg>
